<?xml version="1.0" encoding="UTF-8"?>
<svg width="752pt" height="752pt" version="1.1" viewBox="0 0 752 752" xmlns="http://www.w3.org/2000/svg">
 <g>
  <path fill="#fff" d="m307.8 311.12c-35.52 0-64.879 28.887-64.879 64.879s28.887 64.883 64.879 64.883c35.992 0 64.406-29.363 64.406-64.883 0-35.516-28.887-64.879-64.406-64.879zm0 54.934c5.6836 0 9.9453 4.2617 9.9453 9.9453s-4.2617 9.9453-9.9453 9.9453c-5.6836 0-9.9453-4.2617-9.9453-9.9453 0-5.6797 4.2617-9.9453 9.9453-9.9453zm0 59.199c-26.992 0-49.254-22.258-49.254-49.254h25.102c0 13.262 10.891 24.152 24.152 24.152 13.262 0 24.152-10.891 24.152-24.152h25.102c0 26.996-22.258 49.254-49.254 49.254z"/>
  <path fill="#fff" d="m444.2 311.12c-35.52 0-64.879 28.887-64.879 64.879s28.887 64.879 64.879 64.879c35.992 0.003906 64.883-29.359 64.883-64.879 0-35.516-28.891-64.879-64.883-64.879zm0 54.934c5.6836 0 9.9453 4.2617 9.9453 9.9453s-4.2617 9.9453-9.9453 9.9453c-5.6836 0-9.9453-4.2617-9.9453-9.9453 0-5.6797 4.7383-9.9453 9.9453-9.9453zm0 59.199c-26.992 0-49.25-22.258-49.25-49.254h25.102c0 13.262 10.891 24.152 24.152 24.152s24.152-10.891 24.152-24.152h25.102c-0.003906 26.996-21.789 49.254-49.258 49.254z"/>
 </g>
</svg>
